# xmcd
#
# Track frame offsets: 
#        150
#        15248
#        29501
#        42980
#        57596
#        66663
#        77076
#        89896
#        102074
#        112225
#        122147
#
# Disc length: 1843 seconds
#
# Revision: 2
# Processed by: cddbd v1.4PL0 Copyright (c) Steve Scherf et al.
# Submitted via: ExactAudioCopy v0.90b3
#
DISCID=9d07310b
DTITLE=John Anderson - Backtracks
DYEAR=1999
DGENRE=Country
TTITLE0=Country Comfort
TTITLE1=I'm Just Here To Love You
TTITLE2=What Did I Promise You Last Night
TTITLE3=Somehow, Someway, Someday
TTITLE4=If Love Could Find Us Now
TTITLE5=If There Were No Memories
TTITLE6=Stop In Neveda
TTITLE7=Just At Dawn
TTITLE8=Swoop Down Sweet Jesus
TTITLE9=Mississippi Rain Storm
TTITLE10=Bad Morning For Leaving
EXTD=YEAR: 1999 ID3G:   2
EXTT0=
EXTT1=
EXTT2=
EXTT3=
EXTT4=
EXTT5=
EXTT6=
EXTT7=
EXTT8=
EXTT9=
EXTT10=
PLAYORDER=
